<svg width="119" height="120" viewBox="0 0 119 120" fill="none" xmlns="http://www.w3.org/2000/svg">
<ellipse cx="59.081" cy="59.2264" rx="58.3078" ry="59.2264" fill="#033868"/>
<path d="M10.6474 69.0591V52.424H11.6006V54.7842C12.1907 53.8915 12.8639 53.2485 13.6204 52.8552C14.392 52.4618 15.2923 52.2651 16.3211 52.2651C17.5315 52.2651 18.5225 52.5526 19.2941 53.1275C20.0808 53.6873 20.6633 54.4438 21.0416 55.397C21.4198 56.335 21.6089 57.3714 21.6089 58.5061C21.6089 59.7165 21.4047 60.7756 20.9962 61.6834C20.6028 62.5912 20.0052 63.2947 19.2033 63.794C18.4166 64.2933 17.4331 64.5429 16.253 64.5429C15.7689 64.5429 15.2393 64.4824 14.6644 64.3613C14.0894 64.2403 13.5296 64.0134 12.985 63.6805C12.4554 63.3325 11.994 62.8257 11.6006 62.16V69.0591H10.6474ZM16.3211 63.7259C17.3802 63.7259 18.2199 63.4838 18.8402 62.9997C19.4756 62.5004 19.9371 61.8498 20.2246 61.0479C20.512 60.246 20.6558 59.3761 20.6558 58.438C20.6558 57.4697 20.5045 56.5846 20.2019 55.7828C19.9144 54.9658 19.4378 54.3152 18.7721 53.831C18.1064 53.3317 17.2289 53.0821 16.1395 53.0821C15.141 53.0821 14.3013 53.3393 13.6204 53.8537C12.9396 54.3681 12.4252 55.0338 12.0772 55.8509C11.7292 56.6679 11.5552 57.5303 11.5552 58.438C11.5552 59.4366 11.7292 60.3368 12.0772 61.1387C12.4403 61.9254 12.9774 62.5533 13.6885 63.0224C14.3996 63.4914 15.2771 63.7259 16.3211 63.7259Z" fill="white"/>
<path d="M32.6735 64.5429C32.2348 64.5429 31.7657 64.4899 31.2665 64.384C30.7823 64.2781 30.3209 64.1041 29.8821 63.8621C29.4585 63.6049 29.1105 63.2569 28.8381 62.8181C28.5809 62.3793 28.4523 61.8271 28.4523 61.1614C28.4523 60.4957 28.5734 59.951 28.8154 59.5274C29.0575 59.0886 29.3828 58.7406 29.7913 58.4834C30.2149 58.2262 30.6915 58.0447 31.2211 57.9388C31.7506 57.8329 32.3028 57.7799 32.8778 57.7799H37.2351C37.2351 56.9175 37.1141 56.1308 36.872 55.4197C36.6451 54.7086 36.2593 54.1412 35.7146 53.7176C35.1851 53.2939 34.4664 53.0821 33.5586 53.0821C33.1804 53.0821 32.7794 53.1275 32.3558 53.2183C31.9322 53.2939 31.5312 53.4377 31.153 53.6495C30.7899 53.8613 30.4948 54.1715 30.2679 54.58H29.2012C29.3979 54.0504 29.6778 53.6343 30.041 53.3317C30.4041 53.0292 30.7974 52.8022 31.2211 52.6509C31.6447 52.4845 32.0608 52.3786 32.4693 52.3332C32.8778 52.2878 33.2258 52.2651 33.5132 52.2651C35.1472 52.2651 36.3349 52.7719 37.0763 53.7856C37.8176 54.7993 38.1883 56.161 38.1883 57.8707V64.384H37.2351V62.5458C36.9174 62.9694 36.5316 63.3325 36.0777 63.6351C35.639 63.9377 35.1321 64.1647 34.5572 64.3159C33.9974 64.4672 33.3695 64.5429 32.6735 64.5429ZM32.6281 63.7259C33.3695 63.7259 34.0882 63.6049 34.7841 63.3628C35.4952 63.1056 36.0777 62.7122 36.5316 62.1827C37.0006 61.6531 37.2351 60.9723 37.2351 60.1401V58.5742H33.4451C33.0064 58.5742 32.5525 58.5969 32.0835 58.6423C31.6144 58.6877 31.1757 58.7936 30.7672 58.96C30.3587 59.1113 30.0258 59.3534 29.7686 59.6862C29.5265 60.0191 29.4055 60.473 29.4055 61.0479C29.4055 61.6682 29.5568 62.1827 29.8594 62.5912C30.1771 62.9845 30.5781 63.272 31.0622 63.4536C31.5615 63.6351 32.0835 63.7259 32.6281 63.7259Z" fill="white"/>
<path d="M49.4707 64.5429C48.1998 64.5429 47.1785 64.263 46.4069 63.7032C45.6353 63.1283 45.0755 62.3793 44.7275 61.4564C44.3946 60.5335 44.2282 59.5274 44.2282 58.438C44.2282 57.1974 44.4476 56.1156 44.8864 55.1927C45.3251 54.2698 45.953 53.5511 46.77 53.0367C47.587 52.5223 48.5704 52.2651 49.7203 52.2651C50.2498 52.2651 50.7945 52.3483 51.3543 52.5147C51.9141 52.666 52.4512 52.9232 52.9656 53.2864C53.48 53.6343 53.9037 54.1109 54.2365 54.7161V48.3389H55.1897V64.384H54.2365V61.8195C53.8734 62.5004 53.4271 63.0451 52.8976 63.4536C52.368 63.8469 51.8006 64.1268 51.1955 64.2933C50.6054 64.4597 50.0305 64.5429 49.4707 64.5429ZM49.5614 63.7259C50.56 63.7259 51.4073 63.4838 52.1032 62.9997C52.8143 62.5004 53.3514 61.8422 53.7146 61.0252C54.0928 60.2082 54.2819 59.3156 54.2819 58.3473C54.2819 57.379 54.1079 56.5014 53.76 55.7147C53.4271 54.9128 52.9202 54.2774 52.2394 53.8083C51.5586 53.3242 50.7037 53.0821 49.6749 53.0821C48.631 53.0821 47.7761 53.3317 47.1104 53.831C46.4447 54.3303 45.953 54.9809 45.6353 55.7828C45.3327 56.5846 45.1814 57.447 45.1814 58.37C45.1814 59.0205 45.2419 59.6636 45.3629 60.299C45.4991 60.9344 45.7261 61.5094 46.0438 62.0238C46.3766 62.5382 46.823 62.9543 47.3828 63.272C47.9577 63.5746 48.6839 63.7259 49.5614 63.7259Z" fill="white"/>
<path d="M67.0896 64.5429C65.849 64.5429 64.805 64.2781 63.9578 63.7486C63.1256 63.219 62.4977 62.4928 62.0741 61.5699C61.6505 60.647 61.4387 59.5955 61.4387 58.4153C61.4387 57.2201 61.6505 56.161 62.0741 55.2381C62.4977 54.3152 63.1256 53.589 63.9578 53.0594C64.805 52.5299 65.849 52.2651 67.0896 52.2651C68.3303 52.2651 69.3666 52.5299 70.1988 53.0594C71.046 53.589 71.6815 54.3152 72.1051 55.2381C72.5439 56.161 72.7633 57.2201 72.7633 58.4153C72.7633 59.5955 72.5439 60.647 72.1051 61.5699C71.6815 62.4928 71.046 63.219 70.1988 63.7486C69.3666 64.2781 68.3303 64.5429 67.0896 64.5429ZM67.0896 63.7259C68.179 63.7259 69.0716 63.4914 69.7676 63.0224C70.4636 62.5533 70.978 61.9179 71.3108 61.116C71.6437 60.3141 71.8101 59.4139 71.8101 58.4153C71.8101 57.4319 71.6437 56.5393 71.3108 55.7374C70.978 54.9204 70.4636 54.2774 69.7676 53.8083C69.0716 53.3242 68.179 53.0821 67.0896 53.0821C66.0003 53.0821 65.1076 53.3242 64.4117 53.8083C63.7157 54.2774 63.2013 54.9204 62.8684 55.7374C62.5507 56.5393 62.3918 57.4319 62.3918 58.4153C62.3918 59.4139 62.5507 60.3141 62.8684 61.116C63.2013 61.9179 63.7157 62.5533 64.4117 63.0224C65.1076 63.4914 66.0003 63.7259 67.0896 63.7259Z" fill="white"/>
<path opacity="0.78" d="M72.7159 117.669C41.0769 125.289 17.3734 103.922 9.47656 92.2867C18.6434 100.409 30.0567 99.6034 34.6176 98.1852C46.2211 97.1215 59.8069 66.1304 70.8787 54.7202C81.9504 43.3101 96.2614 49.6437 101.967 61.7307C106.531 71.4003 111.572 79.3616 113.522 82.1336C105.322 104.296 82.9012 115.059 72.7159 117.669Z" fill="white"/>
<path opacity="0.8" d="M14.8821 99.4328C14.8421 99.4019 14.8131 99.363 14.7942 99.3177C14.8209 99.3531 14.8502 99.3915 14.8821 99.4328C15.5252 99.9295 19.0078 98.3679 28.9118 88.391C42.0625 75.1437 62.4654 80.8487 68.2672 86.167C74.069 91.4853 87.5581 103.186 103.803 98.109C97.2922 105.651 78.8458 120.426 57.1471 119.189C30.4289 117.665 16.9876 102.16 14.8821 99.4328Z" fill="#EAEAEA"/>
<path opacity="0.8" d="M35.3426 81.9445C22.3853 68.8712 7.86473 71.6302 2.22412 74.6439C2.22412 77.5448 15.6649 120.575 59.8067 119.221C95.1202 118.138 112.2 89.7608 116.326 75.7076C92.6834 77.6899 98.2918 92.0493 80.1129 101.332C61.934 110.615 51.5392 98.2862 35.3426 81.9445Z" fill="white"/>
<path fill-rule="evenodd" clip-rule="evenodd" d="M112.695 76.142C114.194 71.0286 114.999 65.6109 114.999 60C114.999 28.7279 89.9868 3.45362 59.2264 3.45362C28.4661 3.45362 3.45362 28.7279 3.45362 60C3.45362 64.6366 4.00347 69.1413 5.04038 73.4514C3.95071 73.8168 3.0028 74.228 2.22412 74.644C2.22412 77.5448 15.6649 120.575 59.8067 119.221C95.1202 118.138 112.2 89.7609 116.326 75.7077C115.031 75.8163 113.823 75.962 112.695 76.142ZM118.453 60C118.453 93.1371 91.9363 120 59.2264 120C26.5166 120 0 93.1371 0 60C0 26.8629 26.5166 0 59.2264 0C91.9363 0 118.453 26.8629 118.453 60Z" fill="#033868"/>
<path fill-rule="evenodd" clip-rule="evenodd" d="M93.7603 40.0703L94.1123 43.7283L95.9936 44.0903L94.1123 44.4524L93.7603 48.1103L93.4083 44.4524L91.5269 44.0903L93.4083 43.7283L93.7603 40.0703Z" fill="white"/>
<path fill-rule="evenodd" clip-rule="evenodd" d="M53.5596 27.2061L53.9116 30.864L55.793 31.2261L53.9116 31.5882L53.5596 35.2461L53.2077 31.5882L51.3262 31.2261L53.2077 30.864L53.5596 27.2061Z" fill="white"/>
<path fill-rule="evenodd" clip-rule="evenodd" d="M77.68 14.3418L78.032 17.9997L79.9137 18.3618L78.032 18.724L77.68 22.3817L77.328 18.7239L75.4465 18.3618L77.328 17.9997L77.68 14.3418Z" fill="white"/>
<path fill-rule="evenodd" clip-rule="evenodd" d="M31.0474 15.9497L31.3995 19.6081L33.2811 19.9702L31.3994 20.3323L31.0474 23.99L30.6955 20.3323L28.814 19.9702L30.6954 19.6081L31.0474 15.9497ZM30.824 19.9698V19.97H31.2711V19.9698H30.824Z" fill="white"/>
<path fill-rule="evenodd" clip-rule="evenodd" d="M16.5751 40.0703L16.9271 43.7283L18.8085 44.0903L16.9271 44.4524L16.5751 48.1103L16.2231 44.4524L14.3418 44.0903L16.2231 43.7283L16.5751 40.0703Z" fill="white"/>
<path fill-rule="evenodd" clip-rule="evenodd" d="M111.449 59.3667L111.8 63.0246L113.682 63.3867L111.8 63.7488L111.449 67.4067L111.097 63.7488L109.215 63.3867L111.097 63.0247L111.449 59.3667Z" fill="white"/>
</svg>
